<svg width="26" height="26" viewBox="0 0 26 26" fill="none" xmlns="http://www.w3.org/2000/svg">
<path d="M7.5835 2.16666C6.72154 2.16666 5.89489 2.50907 5.2854 3.11856C4.67591 3.72805 4.3335 4.5547 4.3335 5.41666V20.5833C4.3335 21.4453 4.67591 22.2719 5.2854 22.8814C5.89489 23.4909 6.72154 23.8333 7.5835 23.8333H18.4168C19.2788 23.8333 20.1054 23.4909 20.7149 22.8814C21.3244 22.2719 21.6668 21.4453 21.6668 20.5833V5.41666C21.6668 4.5547 21.3244 3.72805 20.7149 3.11856C20.1054 2.50907 19.2788 2.16666 18.4168 2.16666H7.5835ZM6.50016 5.41666C6.50016 5.12934 6.6143 4.85379 6.81746 4.65062C7.02063 4.44746 7.29618 4.33332 7.5835 4.33332H18.4168C18.7041 4.33332 18.9797 4.44746 19.1829 4.65062C19.386 4.85379 19.5002 5.12934 19.5002 5.41666V20.5833C19.5002 20.8706 19.386 21.1462 19.1829 21.3494C18.9797 21.5525 18.7041 21.6667 18.4168 21.6667H7.5835C7.29618 21.6667 7.02063 21.5525 6.81746 21.3494C6.6143 21.1462 6.50016 20.8706 6.50016 20.5833V5.41666ZM13.0002 14.0833C13.5748 14.0833 14.1259 13.855 14.5322 13.4487C14.9386 13.0424 15.1668 12.4913 15.1668 11.9167C15.1668 11.342 14.9386 10.7909 14.5322 10.3846C14.1259 9.97826 13.5748 9.74999 13.0002 9.74999C12.4255 9.74999 11.8744 9.97826 11.4681 10.3846C11.0618 10.7909 10.8335 11.342 10.8335 11.9167C10.8335 12.4913 11.0618 13.0424 11.4681 13.4487C11.8744 13.855 12.4255 14.0833 13.0002 14.0833ZM9.75016 15.1667C9.46284 15.1667 9.18729 15.2808 8.98413 15.484C8.78097 15.6871 8.66683 15.9627 8.66683 16.25C8.66683 18.4167 10.8335 19.5 13.0002 19.5C15.1668 19.5 17.3335 18.4167 17.3335 16.25C17.3335 15.9627 17.2194 15.6871 17.0162 15.484C16.813 15.2808 16.5375 15.1667 16.2502 15.1667H9.75016ZM11.9168 5.41666C11.6295 5.41666 11.354 5.53079 11.1508 5.73396C10.9476 5.93712 10.8335 6.21267 10.8335 6.49999C10.8335 6.78731 10.9476 7.06286 11.1508 7.26602C11.354 7.46919 11.6295 7.58332 11.9168 7.58332H14.0835C14.3708 7.58332 14.6464 7.46919 14.8495 7.26602C15.0527 7.06286 15.1668 6.78731 15.1668 6.49999C15.1668 6.21267 15.0527 5.93712 14.8495 5.73396C14.6464 5.53079 14.3708 5.41666 14.0835 5.41666H11.9168Z" fill="white" fill-opacity="0.5"/>
</svg>
