<svg width="15" height="15" viewBox="0 0 15 15" fill="none" xmlns="http://www.w3.org/2000/svg">
<path d="M5.62726 2.13501C5.26976 1.62876 4.77476 1.40063 4.24976 1.40626C3.75164 1.41126 3.26664 1.62438 2.86164 1.90813C2.44855 2.19896 2.09631 2.56775 1.82476 2.99376C1.56851 3.39938 1.38351 3.87876 1.40851 4.34688C1.52914 6.59876 2.79601 9.00501 4.57539 10.7856C6.35351 12.5644 8.72789 13.8006 11.1254 13.5644C11.5954 13.5181 12.0398 13.2788 12.4029 12.9738C12.7785 12.6556 13.0853 12.2643 13.3048 11.8238C13.5173 11.3913 13.6441 10.8925 13.5741 10.4069C13.5016 9.90063 13.2185 9.44813 12.6979 9.14813C12.59 9.08555 12.4833 9.02096 12.3779 8.95438C12.2841 8.89626 12.1841 8.83314 12.0629 8.76063C11.8152 8.60794 11.5539 8.47863 11.2823 8.37438C11.0029 8.27251 10.6835 8.20563 10.351 8.25126C10.0066 8.29876 9.68664 8.46126 9.40976 8.75251C9.19664 8.97751 8.88289 9.04751 8.44164 8.92001C7.99289 8.79001 7.48789 8.46751 7.04914 8.03126C6.61039 7.59626 6.27851 7.08751 6.13664 6.62813C5.99664 6.17313 6.05851 5.83876 6.27726 5.60813C6.57289 5.29688 6.73039 4.95063 6.76351 4.58438C6.79601 4.22813 6.70726 3.89314 6.58039 3.60064C6.39039 3.16376 6.06789 2.72938 5.81539 2.39063C5.7519 2.30594 5.6894 2.22052 5.62789 2.13438" fill="url(#paint0_linear_28_118)"/>
<defs>
<linearGradient id="paint0_linear_28_118" x1="1.40625" y1="7.49973" x2="13.5935" y2="7.49973" gradientUnits="userSpaceOnUse">
<stop stop-color="#96662D"/>
<stop offset="0.653846" stop-color="#FCE29F"/>
<stop offset="1" stop-color="#C68A3A"/>
</linearGradient>
</defs>
</svg>
